<svg width="68" height="82" viewBox="0 0 68 82" fill="none" xmlns="http://www.w3.org/2000/svg">
<path d="M51.4449 45.2474C43.4788 50.4314 36.5892 53.6003 30.76 55.2006L30.7442 50.791L22.3112 53.351L22.2954 56.5041C4.20651 56.7297 1.76089 37.3648 14.1156 24.5352C5.84088 43.663 34.0407 40.5376 46.1658 42.3196C49.3633 42.7898 51.4449 43.5998 51.4449 45.2474Z" fill="#FECC0B"/>
<path d="M59.4588 57.6345V59.9657L54.207 61.5612L54.2106 59.2288L59.4588 57.6345Z" fill="#22297C"/>
<path d="M31.9555 65.177V67.7299L30.7445 68.0974L26.5894 69.3613V66.8093L30.7445 65.5449L31.9555 65.177Z" fill="#22297C"/>
<path d="M25.7226 67.3254V69.8779L22.3114 70.9171L20.3564 71.5098V68.9573L22.3114 68.3646L25.7226 67.3254Z" fill="#22297C"/>
<path d="M61.8329 46.8992V51.6189C61.8329 52.5079 61.0414 53.6277 59.242 54.2749L53.9182 55.8921L51.9396 56.4931V63.5966C51.8901 64.9796 50.8019 65.671 49.9123 66.0191L43.8512 67.8612L41.1322 68.687C41.1322 68.687 35.138 70.5128 35.0846 70.5243C33.8598 70.7914 33.3818 70.19 33.3169 69.6226V64.7634L41.1326 62.3927V65.2431C41.1326 66.0993 43.8279 65.8935 43.8516 64.7081V52.3645L51.8094 49.9467V53.0761C52.3029 54.0066 54.1992 53.7435 54.2154 52.4751V49.2154L59.4589 47.623L61.8329 46.8992Z" fill="#22297C"/>
<path d="M52.0388 44.4889C63.9107 35.4011 71.4296 18.1461 1.12012 11.6938C62.5929 -15.9647 83.9624 22.3621 52.0388 44.4889Z" fill="#22297C"/>
<path d="M41.1322 53.1895V58.6185C41.1322 59.1874 40.5976 59.9777 39.5968 60.2424L33.3165 62.1509L31.9552 62.5657L30.7443 62.9332L26.5891 64.1936L25.7225 64.4584L22.3113 65.4936L20.3563 66.0902L20.0833 66.1732L14.4995 67.8683C13.2213 68.0777 11.9708 67.6352 11.7729 66.6829V62.1114L20.0833 59.5865V63.1268C20.2218 63.6879 22.1846 63.5377 22.2598 62.6329L22.2954 56.5046L22.3113 53.3515L30.7443 50.7915L30.7601 55.2011L30.7799 59.6462C30.8195 60.3847 32.8694 59.9307 32.8614 59.0416L32.8456 55.7064L33.3165 55.5646L41.1322 53.1895Z" fill="#22297C"/>
<path d="M8.6792 79.3006L9.99105 75.4675H10.6286L11.9404 79.3006H11.3943L11.0413 78.2294H9.55456L9.20156 79.3006H8.6792ZM10.8981 77.7944L10.2969 75.9871L9.6986 77.7944H10.8981Z" fill="#22297C"/>
<path d="M15.7963 79.3006H13.541V75.4675H14.0586V78.8478H15.7967L15.7963 79.3006Z" fill="#22297C"/>
<path d="M18.6684 79.3754C18.3934 79.3754 18.1413 79.3339 17.9133 79.2517C17.685 79.1695 17.4891 79.0443 17.3253 78.876C17.1615 78.7061 17.036 78.4959 16.949 78.245C16.8619 77.9944 16.8184 77.7064 16.8184 77.38C16.8184 77.0714 16.8623 76.7949 16.9501 76.5499C17.038 76.3053 17.1638 76.0967 17.3277 75.9228C17.486 75.7545 17.6814 75.6249 17.913 75.5344C18.1445 75.4435 18.3981 75.3977 18.6731 75.3977C18.8041 75.3977 18.9292 75.4072 19.0495 75.4258C19.1698 75.4451 19.2846 75.4704 19.3946 75.5032C19.4816 75.5289 19.579 75.5644 19.6858 75.6103C19.7931 75.6557 19.8797 75.6948 19.9458 75.7272V76.3428H19.9015C19.837 76.2859 19.7705 76.2326 19.7017 76.182C19.6328 76.1314 19.5358 76.0765 19.4104 76.0184C19.3059 75.9671 19.1856 75.924 19.0495 75.89C18.9138 75.8553 18.7673 75.8383 18.6106 75.8383C18.2359 75.8383 17.9335 75.9774 17.7024 76.2555C17.4713 76.5337 17.3562 76.9035 17.3562 77.365C17.3562 77.6226 17.3866 77.8475 17.4476 78.0395C17.5085 78.2319 17.5964 78.3951 17.7115 78.5286C17.8231 78.661 17.9577 78.7618 18.1156 78.8313C18.2735 78.9009 18.4504 78.9356 18.6474 78.9356C18.7938 78.9356 18.9391 78.9258 19.0839 78.9048C19.2284 78.8843 19.3502 78.8534 19.4496 78.8123V77.8214H18.5509V77.3729H19.962V79.0467C19.896 79.0755 19.8073 79.1126 19.6969 79.1569C19.5861 79.2015 19.4828 79.2367 19.387 79.2628C19.2596 79.3007 19.1449 79.3288 19.042 79.3477C18.9391 79.3667 18.8148 79.3754 18.6684 79.3754Z" fill="#22297C"/>
<path d="M21.9644 79.3006V75.4675H24.3973V75.9203H22.4816V76.9706H24.2667V77.4234H22.4816V78.8474H24.3973V79.3002L21.9644 79.3006Z" fill="#22297C"/>
<path d="M28.5403 79.3006H27.8688L26.6353 77.7766H26.0445V79.3006H25.5269V75.4675H26.5304C26.7532 75.4675 26.9404 75.479 27.0912 75.5035C27.242 75.5276 27.3852 75.5833 27.5209 75.6706C27.6567 75.7568 27.7643 75.8674 27.8435 76.0029C27.9226 76.1384 27.9626 76.3068 27.9626 76.5075C27.9626 76.7888 27.8902 77.0243 27.7457 77.2128C27.6013 77.4013 27.4042 77.5415 27.1549 77.6324L28.5403 79.3006ZM27.4216 76.5458C27.4216 76.4344 27.4014 76.3352 27.3615 76.2483C27.3211 76.1618 27.2594 76.091 27.1759 76.0361C27.1027 75.9883 27.0172 75.9543 26.9198 75.9342C26.8221 75.9148 26.701 75.9049 26.5565 75.9049H26.0445V77.3519H26.4992C26.6472 77.3519 26.7805 77.3388 26.8989 77.3127C27.0172 77.2867 27.1185 77.2337 27.202 77.1535C27.2768 77.0808 27.3322 76.9955 27.3678 76.8959C27.4038 76.7963 27.4216 76.6798 27.4216 76.5458Z" fill="#22297C"/>
<path d="M30.15 79.3006H29.6348V78.9094V75.8587L29.6367 75.4675H30.1563L30.1524 75.8587V78.9094L30.15 79.3006Z" fill="#22297C"/>
<path d="M31.9658 79.3006V75.4675H34.3988V75.9203H32.483V76.9706H34.2682V77.4234H32.483V78.8474H34.3988V79.3002H31.9658V79.3006Z" fill="#22297C"/>
<path d="M41.4185 76.4112C41.4185 76.6025 41.3817 76.7846 41.3081 76.9577C41.2337 77.1304 41.1277 77.2746 40.9888 77.3907C40.9033 77.4623 40.8099 77.5282 40.7082 77.5891C40.6061 77.6495 40.4933 77.7009 40.3703 77.7436C40.2464 77.7859 40.113 77.8191 39.9682 77.8432C39.8234 77.8673 39.6623 77.8787 39.4826 77.8787H38.8237V79.2217H37.5669V75.1152H39.5095C39.798 75.1152 40.0473 75.137 40.2571 75.18C40.4668 75.2231 40.6568 75.2915 40.8265 75.3859C41.0149 75.4886 41.1605 75.6257 41.2634 75.798C41.3671 75.9699 41.4185 76.1742 41.4185 76.4112ZM40.1285 76.4361C40.1285 76.3204 40.0944 76.2208 40.0272 76.137C39.9599 76.0533 39.8795 75.9964 39.7854 75.9644C39.6666 75.9225 39.5531 75.898 39.4446 75.8912C39.3358 75.8845 39.1886 75.8818 39.0026 75.8818H38.8245V77.1118H38.912C39.0307 77.1118 39.1427 77.1106 39.248 77.1086C39.3532 77.107 39.445 77.1003 39.5234 77.0893C39.5907 77.0802 39.6619 77.0624 39.7367 77.0355C39.8115 77.0087 39.8697 76.9786 39.91 76.9454C39.9951 76.8775 40.0529 76.8068 40.0833 76.7333C40.113 76.6606 40.1285 76.561 40.1285 76.4361Z" fill="#22297C"/>
<path d="M47.044 77.1698C47.044 77.8336 46.8276 78.3555 46.395 78.736C45.9625 79.1169 45.3697 79.3066 44.6174 79.3066C43.8623 79.3066 43.2699 79.1146 42.8394 78.7293C42.4096 78.3437 42.1943 77.8241 42.1943 77.1698C42.1943 76.5095 42.4096 75.988 42.8394 75.6047C43.2699 75.221 43.8623 75.0298 44.6174 75.0298C45.3697 75.0298 45.9625 75.2202 46.395 75.6015C46.8276 75.9836 47.044 76.506 47.044 77.1698ZM45.7464 77.1666C45.7464 76.9224 45.7159 76.7138 45.6546 76.5423C45.5929 76.37 45.5106 76.229 45.4073 76.1187C45.3 76.0069 45.1785 75.9267 45.0428 75.8777C44.9071 75.8291 44.7666 75.8046 44.6214 75.8046C44.4666 75.8046 44.3265 75.8271 44.2007 75.8722C44.0756 75.9172 43.9545 75.9974 43.8382 76.1132C43.7345 76.2199 43.6514 76.3617 43.5877 76.538C43.5236 76.7142 43.4919 76.9248 43.4919 77.1698C43.4919 77.4215 43.522 77.6305 43.5826 77.7972C43.6431 77.9636 43.7262 78.1027 43.8315 78.2149C43.9387 78.3291 44.061 78.4101 44.1979 78.459C44.3348 78.5076 44.4753 78.5321 44.6214 78.5321C44.769 78.5321 44.9122 78.5061 45.0511 78.4535C45.1904 78.4014 45.3099 78.32 45.4108 78.2097C45.5185 78.09 45.6012 77.9513 45.6594 77.7921C45.7175 77.6325 45.7464 77.4246 45.7464 77.1666Z" fill="#22297C"/>
<path d="M49.7281 79.296C49.3446 79.296 49.0082 79.266 48.7178 79.2051C48.4281 79.1447 48.1582 79.0692 47.9097 78.9791V78.0028H48.0236C48.2749 78.177 48.5515 78.3114 48.8539 78.4058C49.1566 78.499 49.4499 78.5461 49.7344 78.5461C49.8064 78.5461 49.901 78.5397 50.0189 78.5267C50.1364 78.5137 50.2306 78.4935 50.3027 78.4658C50.3901 78.435 50.4641 78.3912 50.5247 78.3351C50.5852 78.279 50.6153 78.2051 50.6153 78.113C50.6153 78.0099 50.5662 77.9261 50.4673 77.8621C50.3687 77.7977 50.2512 77.7511 50.1147 77.7214C49.9437 77.6847 49.7621 77.6495 49.5682 77.6167C49.3743 77.5835 49.1934 77.5428 49.0256 77.495C48.6382 77.3828 48.36 77.2323 48.1926 77.0426C48.024 76.8533 47.9401 76.6163 47.9401 76.331C47.9401 75.9465 48.1384 75.6356 48.5349 75.3977C48.9314 75.1591 49.4269 75.0405 50.0205 75.0405C50.3185 75.0405 50.6149 75.0654 50.9093 75.1148C51.2037 75.1642 51.4673 75.2318 51.7008 75.3163V76.254H51.59C51.404 76.1232 51.1768 76.0129 50.9093 75.9228C50.6414 75.8327 50.3668 75.7877 50.0842 75.7877C49.9746 75.7877 49.8761 75.7944 49.7886 75.8071C49.7011 75.8197 49.6093 75.8446 49.5128 75.8813C49.4348 75.9106 49.3667 75.9548 49.3094 76.0125C49.2524 76.0702 49.2239 76.1354 49.2239 76.2069C49.2239 76.3116 49.269 76.3946 49.36 76.4563C49.451 76.5179 49.6263 76.5736 49.8859 76.623C50.0541 76.6546 50.216 76.6846 50.3715 76.7139C50.5278 76.7431 50.6936 76.7842 50.8709 76.8356C51.218 76.9387 51.476 77.0766 51.6454 77.2504C51.8147 77.4243 51.8994 77.6539 51.8994 77.9387C51.8994 78.3469 51.7039 78.6749 51.3133 78.923C50.9216 79.1715 50.3933 79.296 49.7281 79.296Z" fill="#22297C"/>
<path d="M53.8969 79.2213V75.8984H52.4185V75.1152H56.6326V75.8984H55.1541V79.2213H53.8969Z" fill="#22297C"/>
<path d="M57.5464 79.2213V75.1147H60.9307V75.8979H58.7965V76.6174H60.7625V77.4005H58.7965V78.4373H60.9307V79.2205H57.5464V79.2213Z" fill="#22297C"/>
</svg>
